<svg width="41" height="40" viewBox="0 0 41 40" fill="none" xmlns="http://www.w3.org/2000/svg">
<g clip-path="url(#clip0_6_226)">
<path d="M20.5972 20C22.575 20 24.5084 19.4135 26.1529 18.3147C27.7974 17.2159 29.0791 15.6541 29.836 13.8268C30.5928 11.9996 30.7909 9.98891 30.405 8.0491C30.0192 6.10929 29.0668 4.32746 27.6682 2.92894C26.2697 1.53041 24.4879 0.578004 22.5481 0.192152C20.6083 -0.1937 18.5976 0.00433286 16.7703 0.761209C14.9431 1.51809 13.3813 2.79981 12.2825 4.4443C11.1837 6.08879 10.5972 8.02219 10.5972 10C10.5998 12.6514 11.6542 15.1934 13.529 17.0681C15.4038 18.9429 17.9458 19.9974 20.5972 20ZM20.5972 3.33334C21.9157 3.33334 23.2046 3.72433 24.301 4.45687C25.3973 5.18942 26.2518 6.23061 26.7564 7.44878C27.261 8.66695 27.393 10.0074 27.1357 11.3006C26.8785 12.5938 26.2436 13.7817 25.3112 14.714C24.3789 15.6464 23.191 16.2813 21.8978 16.5386C20.6046 16.7958 19.2641 16.6638 18.0459 16.1592C16.8278 15.6546 15.7866 14.8001 15.054 13.7038C14.3215 12.6075 13.9305 11.3185 13.9305 10C13.9305 8.23189 14.6329 6.5362 15.8831 5.28596C17.1334 4.03572 18.8291 3.33334 20.5972 3.33334Z" fill="white" fill-opacity="0.6"/>
<path d="M20.5972 23.3334C16.6203 23.3378 12.8075 24.9196 9.99544 27.7316C7.18335 30.5437 5.60158 34.3565 5.59717 38.3334C5.59717 38.7754 5.77276 39.1993 6.08532 39.5119C6.39788 39.8244 6.82181 40 7.26383 40C7.70586 40 8.12978 39.8244 8.44235 39.5119C8.75491 39.1993 8.9305 38.7754 8.9305 38.3334C8.9305 35.2392 10.1597 32.2717 12.3476 30.0838C14.5355 27.8959 17.503 26.6667 20.5972 26.6667C23.6914 26.6667 26.6588 27.8959 28.8467 30.0838C31.0347 32.2717 32.2638 35.2392 32.2638 38.3334C32.2638 38.7754 32.4394 39.1993 32.752 39.5119C33.0645 39.8244 33.4885 40 33.9305 40C34.3725 40 34.7964 39.8244 35.109 39.5119C35.4216 39.1993 35.5972 38.7754 35.5972 38.3334C35.5928 34.3565 34.011 30.5437 31.1989 27.7316C28.3868 24.9196 24.5741 23.3378 20.5972 23.3334Z" fill="white" fill-opacity="0.6"/>
</g>
<defs>
<clipPath id="clip0_6_226">
<rect width="40" height="40" fill="white" transform="translate(0.597168)"/>
</clipPath>
</defs>
</svg>
