<svg width="96" height="96" viewBox="0 0 96 96" fill="none" xmlns="http://www.w3.org/2000/svg">
<g filter="url(#filter0_d_11_350)">
<g clip-path="url(#clip0_11_350)">
<path d="M47.9998 8C40.0885 8 32.3549 10.346 25.777 14.7412C19.199 19.1365 14.0721 25.3836 11.0446 32.6927C8.01709 40.0017 7.22495 48.0444 8.76836 55.8036C10.3118 63.5629 14.1214 70.6902 19.7155 76.2843C25.3096 81.8784 32.4369 85.688 40.1962 87.2314C47.9554 88.7748 55.9981 87.9827 63.3071 84.9552C70.6162 81.9277 76.8633 76.8008 81.2586 70.2228C85.6538 63.6449 87.9998 55.9113 87.9998 48C87.9883 37.3949 83.7703 27.2274 76.2714 19.7284C68.7724 12.2294 58.6049 8.01147 47.9998 8V8ZM47.9998 81.3333C41.4071 81.3333 34.9624 79.3784 29.4808 75.7157C23.9991 72.0529 19.7267 66.847 17.2038 60.7561C14.6809 54.6653 14.0208 47.963 15.3069 41.497C16.5931 35.031 19.7678 29.0915 24.4295 24.4298C29.0913 19.768 35.0307 16.5933 41.4968 15.3072C47.9628 14.021 54.665 14.6811 60.7559 17.204C66.8468 19.7269 72.0527 23.9994 75.7154 29.481C79.3781 34.9626 81.3331 41.4073 81.3331 48C81.3234 56.8376 77.8084 65.3104 71.5593 71.5595C65.3102 77.8086 56.8373 81.3236 47.9998 81.3333ZM64.6664 48C64.6664 48.8841 64.3153 49.7319 63.6901 50.357C63.065 50.9821 62.2172 51.3333 61.3331 51.3333H51.3331V61.3333C51.3331 62.2174 50.9819 63.0652 50.3568 63.6904C49.7317 64.3155 48.8838 64.6667 47.9998 64.6667C47.1157 64.6667 46.2679 64.3155 45.6428 63.6904C45.0176 63.0652 44.6664 62.2174 44.6664 61.3333V51.3333H34.6664C33.7824 51.3333 32.9345 50.9821 32.3094 50.357C31.6843 49.7319 31.3331 48.8841 31.3331 48C31.3331 47.116 31.6843 46.2681 32.3094 45.643C32.9345 45.0179 33.7824 44.6667 34.6664 44.6667H44.6664V34.6667C44.6664 33.7826 45.0176 32.9348 45.6428 32.3096C46.2679 31.6845 47.1157 31.3333 47.9998 31.3333C48.8838 31.3333 49.7317 31.6845 50.3568 32.3096C50.9819 32.9348 51.3331 33.7826 51.3331 34.6667V44.6667H61.3331C62.2172 44.6667 63.065 45.0179 63.6901 45.643C64.3153 46.2681 64.6664 47.116 64.6664 48Z" fill="white" fill-opacity="0.6"/>
</g>
</g>
<defs>
<filter id="filter0_d_11_350" x="0" y="0" width="96" height="96" filterUnits="userSpaceOnUse" color-interpolation-filters="sRGB">
<feFlood flood-opacity="0" result="BackgroundImageFix"/>
<feColorMatrix in="SourceAlpha" type="matrix" values="0 0 0 0 0 0 0 0 0 0 0 0 0 0 0 0 0 0 127 0" result="hardAlpha"/>
<feOffset/>
<feGaussianBlur stdDeviation="4"/>
<feComposite in2="hardAlpha" operator="out"/>
<feColorMatrix type="matrix" values="0 0 0 0 1 0 0 0 0 1 0 0 0 0 1 0 0 0 1 0"/>
<feBlend mode="normal" in2="BackgroundImageFix" result="effect1_dropShadow_11_350"/>
<feBlend mode="normal" in="SourceGraphic" in2="effect1_dropShadow_11_350" result="shape"/>
</filter>
<clipPath id="clip0_11_350">
<rect x="8" y="8" width="80" height="80" rx="40" fill="white"/>
</clipPath>
</defs>
</svg>
